HIERARCHY
ROOT Hips
{
	OFFSET 0.000000 0.000000 0.000000
	CHANNELS 6 Xposition Yposition Zposition Yrotation Xrotation Zrotation
	JOINT Chest
	{
		OFFSET 0.000000 -0.009281 11.569106
		CHANNELS 3 Yrotation Xrotation Zrotation
		JOINT Chest2
		{
			OFFSET -0.000000 0.016865 9.269641
			CHANNELS 3 Yrotation Xrotation Zrotation
			JOINT Chest3
			{
				OFFSET -0.000000 0.000001 8.374491
				CHANNELS 3 Yrotation Xrotation Zrotation
				JOINT Chest4
				{
					OFFSET -0.000000 0.000001 8.374493
					CHANNELS 3 Yrotation Xrotation Zrotation
					JOINT Neck
					{
						OFFSET -0.000000 0.000002 12.152554
						CHANNELS 3 Yrotation Xrotation Zrotation
						JOINT Head
						{
							OFFSET -0.000000 0.040101 7.802319
							CHANNELS 3 Yrotation Xrotation Zrotation
							End Site
							{
								OFFSET -0.000000 0.020947 14.853096
							}
						}
					}
					JOINT RightCollar
					{
						OFFSET 2.894404 0.000001 6.791374
						CHANNELS 3 Yrotation Xrotation Zrotation
						JOINT RightShoulder
						{
							OFFSET 13.574684 0.000001 0.000000
							CHANNELS 3 Yrotation Xrotation Zrotation
							JOINT RightElbow
							{
								OFFSET 23.923903 0.000002 0.000000
								CHANNELS 3 Yrotation Xrotation Zrotation
								JOINT RightWrist
								{
									OFFSET 19.846718 0.012767 0.000000
									CHANNELS 3 Yrotation Xrotation Zrotation
									End Site
									{
										OFFSET 14.973145 0.000001 0.000000
									}
								}
							}
						}
					}
					JOINT LeftCollar
					{
						OFFSET -2.894404 0.000001 6.791374
						CHANNELS 3 Yrotation Xrotation Zrotation
						JOINT LeftShoulder
						{
							OFFSET -13.574684 -0.000001 0.000000
							CHANNELS 3 Yrotation Xrotation Zrotation
							JOINT LeftElbow
							{
								OFFSET -23.923903 -0.000002 0.000000
								CHANNELS 3 Yrotation Xrotation Zrotation
								JOINT LeftWrist
								{
									OFFSET -19.846718 0.012763 0.000000
									CHANNELS 3 Yrotation Xrotation Zrotation
									End Site
									{
										OFFSET -14.973145 -0.000001 0.000000
									}
								}
							}
						}
					}
				}
			}
		}
	}
	JOINT RightHip
	{
		OFFSET 9.469263 0.004643 0.045487
		CHANNELS 3 Yrotation Xrotation Zrotation
		JOINT RightKnee
		{
			OFFSET 0.000000 0.002661 -40.478676
			CHANNELS 3 Yrotation Xrotation Zrotation
			JOINT RightAnkle
			{
				OFFSET 0.000000 0.049106 -35.224068
				CHANNELS 3 Yrotation Xrotation Zrotation
				JOINT RightToe
				{
					OFFSET -0.000001 12.539529 -6.151390
					CHANNELS 3 Yrotation Xrotation Zrotation
					End Site
					{
						OFFSET -0.000001 5.044994 -1.291870
					}
				}
			}
		}
	}
	JOINT LeftHip
	{
		OFFSET -9.469263 0.004641 0.045487
		CHANNELS 3 Yrotation Xrotation Zrotation
		JOINT LeftKnee
		{
			OFFSET 0.000000 0.002661 -40.478676
			CHANNELS 3 Yrotation Xrotation Zrotation
			JOINT LeftAnkle
			{
				OFFSET 0.000000 0.049106 -35.224068
				CHANNELS 3 Yrotation Xrotation Zrotation
				JOINT LeftToe
				{
					OFFSET -0.000001 12.539529 -6.151390
					CHANNELS 3 Yrotation Xrotation Zrotation
					End Site
					{
						OFFSET -0.000001 5.044994 -1.291870
					}
				}
			}
		}
	}
}
MOTION
Frames: 14
Frame Time: 0.016667
10.017272 4.211454 83.030762 -7.219830 -5.121921 -119.117802 -0.642033 -3.848595 0.801426 -0.300509 -1.709714 0.400777 -0.300508 -1.709714 0.400777 -0.224242 -1.282484 0.299718 -2.685203 -24.689814 -0.687331 -4.979445 -9.733066 -1.888051 4.134985 0.879914 1.717703 67.867813 -6.068361 40.599256 74.172958 -11.669024 51.937848 16.952130 15.853176 -20.783815 -9.878728 -3.746803 -11.327300 -59.566729 -6.807761 -49.006378 -3.456774 -0.840565 -8.492336 -2.515209 -33.421796 9.362508 0.749818 -9.455672 1.665183 -0.478593 -4.685154 -1.185146 1.097885 4.959935 5.147289 0.001346 -0.086170 -0.023738 0.125574 -12.768953 2.947265 0.464363 -1.575980 8.259467 -0.302372 5.593019 -1.331842 0.228352 0.102320 0.013480 
10.023296 4.224146 83.028358 -7.194230 -5.058365 -118.963386 -0.593487 -3.829574 0.790576 -0.278051 -1.700621 0.395019 -0.278051 -1.700622 0.395019 -0.207424 -1.275646 0.295473 -2.682040 -24.660548 -0.692661 -4.975752 -9.678876 -1.897930 4.009772 0.785662 1.706305 67.466423 -5.961108 41.934872 73.288381 -12.186200 52.454026 18.683156 14.210156 -21.102500 -9.943730 -3.756124 -11.331718 -59.848570 -6.723921 -49.102008 -3.658262 1.210844 -8.622291 -3.918408 -31.483859 11.459382 0.715907 -9.478897 1.595922 -0.466381 -4.562583 -1.289137 1.112474 4.915589 5.162911 -0.005443 -0.088609 -0.026135 0.112816 -12.716005 2.940994 0.466253 -1.525022 8.173867 -0.350351 5.535348 -1.396281 0.228448 0.100242 0.015116 
10.027328 4.234671 83.026581 -7.167247 -4.997023 -118.808327 -0.540459 -3.794414 0.767093 -0.253946 -1.685264 0.382741 -0.253946 -1.685265 0.382739 -0.189390 -1.264108 0.286330 -2.685848 -24.643585 -0.685168 -4.981128 -9.647197 -1.886083 3.890197 0.736510 1.702149 67.130808 -5.897970 43.201589 72.053264 -12.885184 53.036272 20.110205 12.881263 -21.743089 -10.025006 -3.792485 -11.318198 -60.245793 -6.560381 -49.153685 -3.991198 3.595181 -8.718420 -5.124820 -29.457137 13.511560 0.688551 -9.501682 1.534542 -0.455489 -4.439322 -1.391572 1.124019 4.868383 5.160370 -0.011087 -0.088669 -0.027987 0.104937 -12.661867 2.912890 0.467010 -1.475432 8.101702 -0.397987 5.476929 -1.456358 0.227583 0.098072 0.016950 
10.027612 4.240863 83.025131 -7.137324 -4.935828 -118.660576 -0.494234 -3.770840 0.757556 -0.233430 -1.675183 0.377360 -0.233430 -1.675183 0.377356 -0.174026 -1.256532 0.282354 -2.674888 -24.621831 -0.686965 -4.962429 -9.606483 -1.887442 3.795032 0.709462 1.694669 66.836536 -5.806746 44.427426 70.632011 -13.808592 53.680458 21.310093 11.456280 -22.434769 -10.079472 -3.819147 -11.332892 -60.732683 -6.292848 -49.185849 -4.413684 5.952970 -8.794824 -6.049901 -27.404206 15.236127 0.672485 -9.519823 1.503026 -0.452994 -4.317754 -1.513192 1.134217 4.820729 5.130795 -0.015338 -0.088668 -0.026745 0.096908 -12.606046 2.875518 0.470980 -1.424546 8.037224 -0.442568 5.417000 -1.490681 0.222107 0.096111 0.017143 
10.023349 4.241839 83.023514 -7.102513 -4.872303 -118.518768 -0.446534 -3.756389 0.758374 -0.212458 -1.668968 0.376778 -0.212458 -1.668968 0.376779 -0.158303 -1.251858 0.281982 -2.656572 -24.594608 -0.696710 -4.932617 -9.555724 -1.901442 3.697688 0.665155 1.690285 66.560986 -5.700064 45.658264 69.028036 -14.912770 54.407467 22.454612 9.749563 -23.252343 -10.138250 -3.812710 -11.353231 -61.229484 -6.034389 -49.155939 -4.809563 8.127596 -8.903615 -6.667694 -25.338830 16.540714 0.656408 -9.533985 1.486453 -0.451572 -4.192538 -1.643616 1.144999 4.771261 5.154639 -0.018553 -0.089106 -0.024177 0.094732 -12.542841 2.839065 0.473146 -1.377056 7.965412 -0.484257 5.359313 -1.524061 0.211921 0.092492 0.016567 
10.018709 4.242102 83.021736 -7.066559 -4.808600 -118.383216 -0.394047 -3.736025 0.762075 -0.188420 -1.659743 0.377687 -0.188420 -1.659743 0.377684 -0.140280 -1.244925 0.282734 -2.640815 -24.571928 -0.706625 -4.907339 -9.513490 -1.916214 3.598945 0.567790 1.709671 66.344209 -5.527012 46.894866 67.156435 -16.249638 55.202627 23.500791 8.186887 -24.203475 -10.203196 -3.803038 -11.352020 -61.712576 -5.890122 -49.058080 -5.075545 10.193275 -9.046952 -7.021270 -23.244524 17.244476 0.640904 -9.541556 1.459952 -0.443594 -4.075104 -1.764876 1.151371 4.725579 5.162357 -0.024402 -0.090824 -0.024974 0.089629 -12.479564 2.813542 0.477568 -1.329617 7.887283 -0.520708 5.303162 -1.558307 0.199087 0.088572 0.016825 
10.010897 4.238196 83.020035 -7.029258 -4.747514 -118.253838 -0.344119 -3.709917 0.778125 -0.165552 -1.648198 0.384000 -0.165552 -1.648198 0.384003 -0.123119 -1.236253 0.287530 -2.618363 -24.553784 -0.720127 -4.870837 -9.479586 -1.935571 3.509223 0.466534 1.679262 66.176945 -5.350248 48.117323 65.091430 -17.729819 56.005786 24.351224 6.836412 -25.138224 -10.263946 -3.812274 -11.355548 -62.173805 -5.832780 -48.909858 -5.287538 12.290436 -9.189249 -7.006875 -21.004013 17.434434 0.623020 -9.548893 1.427302 -0.429306 -3.957179 -1.880153 1.157316 4.679699 5.188656 -0.030980 -0.092664 -0.024968 0.089994 -12.416381 2.795995 0.480154 -1.282840 7.798115 -0.554713 5.249061 -1.574558 0.185674 0.083225 0.017683 
10.004087 4.234041 83.018631 -6.998631 -4.686298 -118.119543 -0.293881 -3.689664 0.786292 -0.142399 -1.639083 0.386820 -0.142399 -1.639084 0.386823 -0.105755 -1.229404 0.289713 -2.598050 -24.531415 -0.725979 -4.836390 -9.437567 -1.941898 3.405303 0.420239 1.608438 66.031018 -5.254193 49.270925 62.895940 -19.245608 56.861554 25.105684 5.610198 -26.011783 -10.326499 -3.836336 -11.341931 -62.637267 -5.763129 -48.728940 -5.608518 14.456623 -9.338397 -6.535775 -18.565856 17.231094 0.603885 -9.564177 1.385899 -0.414541 -3.837100 -1.988728 1.162060 4.635115 5.219185 -0.037401 -0.095045 -0.025912 0.087654 -12.359592 2.763385 0.485275 -1.234570 7.719591 -0.588194 5.192175 -1.610994 0.172455 0.079623 0.017635 
9.997034 4.229039 83.017342 -6.970632 -4.622309 -117.975535 -0.236737 -3.674598 0.779039 -0.116631 -1.632247 0.383003 -0.116631 -1.632247 0.383003 -0.086445 -1.224259 0.286919 -2.581800 -24.503410 -0.722992 -4.807167 -9.384844 -1.933598 3.279100 0.342975 1.584916 65.827048 -5.186520 50.396267 60.618981 -20.694061 57.841491 25.733513 4.523022 -26.749905 -10.416955 -3.831474 -11.290952 -63.122102 -5.697465 -48.469164 -6.042430 16.625085 -9.555555 -5.692929 -15.900016 16.844496 0.587473 -9.579772 1.334549 -0.406842 -3.721015 -2.100807 1.168880 4.595410 5.226272 -0.042226 -0.098070 -0.027305 0.082819 -12.302602 2.719499 0.490835 -1.186936 7.651356 -0.619371 5.133570 -1.658571 0.159649 0.077364 0.018346 
9.989496 4.222170 83.015785 -6.944946 -4.558503 -117.823099 -0.183967 -3.669756 0.768534 -0.092687 -1.629812 0.377668 -0.092688 -1.629812 0.377666 -0.068504 -1.222416 0.282981 -2.554806 -24.466552 -0.718911 -4.758614 -9.315253 -1.920978 3.154233 0.243809 1.578564 65.568901 -5.144491 51.497290 58.354131 -22.087251 58.915552 26.371348 3.524776 -27.445286 -10.502504 -3.800924 -11.227482 -63.668319 -5.647059 -48.161266 -6.539793 18.683542 -9.870712 -4.685691 -13.395840 16.292668 0.571112 -9.597967 1.272920 -0.394453 -3.607218 -2.202416 1.165707 4.559247 5.222219 -0.042378 -0.100276 -0.027828 0.078569 -12.246928 2.676834 0.499963 -1.139190 7.568737 -0.650626 5.075313 -1.702438 0.147190 0.073815 0.018778 
9.979947 4.211157 83.014160 -6.915276 -4.492249 -117.660896 -0.144482 -3.677077 0.773348 -0.074482 -1.632765 0.378645 -0.074483 -1.632765 0.378645 -0.054846 -1.224620 0.283763 -2.502020 -24.421912 -0.726677 -4.666919 -9.230797 -1.923492 3.063438 0.229585 1.526699 65.277463 -5.203845 52.465685 55.921600 -23.522289 60.176507 26.853380 2.466995 -28.130079 -10.544305 -3.758970 -11.172742 -64.282366 -5.603150 -47.840568 -7.106376 20.488558 -10.233121 -3.354182 -10.734336 15.468101 0.563130 -9.610518 1.217669 -0.389279 -3.498643 -2.303152 1.159344 4.526230 5.208680 -0.040244 -0.100674 -0.028328 0.077301 -12.184779 2.633971 0.508552 -1.094297 7.460152 -0.678389 5.018806 -1.703256 0.134976 0.069736 0.020188 
9.971842 4.200656 83.013153 -6.887441 -4.425030 -117.492135 -0.111530 -3.685465 0.785245 -0.058065 -1.636094 0.382022 -0.058065 -1.636094 0.382022 -0.042524 -1.227108 0.286343 -2.431494 -24.379529 -0.738883 -4.544444 -9.150105 -1.929431 2.966072 0.176833 1.470172 65.021577 -5.272984 53.347616 53.245453 -25.011939 61.609577 27.121307 1.422771 -28.742956 -10.585704 -3.715266 -11.115678 -64.945591 -5.575341 -47.448819 -7.802258 22.079287 -10.715316 -1.368401 -7.648435 14.345040 0.553048 -9.621219 1.159141 -0.388405 -3.401307 -2.395131 1.157598 4.499153 5.218706 -0.038399 -0.098819 -0.028874 0.077811 -12.115165 2.591137 0.519154 -1.058421 7.362174 -0.712332 4.962743 -1.733322 0.125661 0.064664 0.020260 
9.966167 4.189335 83.013054 -6.868206 -4.359662 -117.313417 -0.082246 -3.708818 0.801790 -0.043913 -1.646345 0.387113 -0.043913 -1.646345 0.387112 -0.031889 -1.234787 0.290193 -2.346254 -24.331125 -0.756573 -4.397068 -9.057963 -1.941692 2.859728 0.124142 1.401143 64.800805 -5.340793 54.165845 50.466304 -26.422057 63.158158 27.352871 0.541603 -29.247676 -10.647411 -3.622087 -11.047424 -65.623221 -5.609349 -46.956946 -8.679811 23.577649 -11.347229 1.252602 -4.419844 12.905682 0.543507 -9.640114 1.105362 -0.383846 -3.309444 -2.503273 1.153203 4.475871 5.210166 -0.038106 -0.095516 -0.029134 0.080704 -12.048676 2.551616 0.526828 -1.031672 7.276384 -0.750503 4.910054 -1.790991 0.119785 0.059729 0.021505 
9.955345 4.175218 83.012985 -6.860516 -4.300416 -117.117390 -0.050521 -3.729816 0.809824 -0.029022 -1.656045 0.389694 -0.029022 -1.656044 0.389694 -0.020709 -1.242052 0.292170 -2.254742 -24.291537 -0.772914 -4.237893 -8.981947 -1.949569 2.750315 0.048870 1.344399 64.554126 -5.452531 54.896631 47.839038 -27.618032 64.714874 27.327855 -0.323689 -29.605414 -10.736379 -3.569159 -10.959458 -66.307538 -5.666138 -46.460446 -9.637874 24.882582 -12.075599 4.199587 -0.913551 11.554651 0.537481 -9.674570 1.036556 -0.372380 -3.211488 -2.619145 1.141842 4.451059 5.182522 -0.037989 -0.093434 -0.029196 0.081570 -12.000745 2.518569 0.540117 -1.006716 7.165633 -0.787477 4.864564 -1.854359 0.113506 0.055711 0.023397 
